<svg width="12" height="12" viewBox="0 0 12 12" fill="none" xmlns="http://www.w3.org/2000/svg">
<path d="M9.09677 5.85484V6.14516C9.09677 6.30484 8.96613 6.43548 8.80645 6.43548H6.43548V8.80645C6.43548 8.96613 6.30484 9.09677 6.14516 9.09677H5.85484C5.69516 9.09677 5.56452 8.96613 5.56452 8.80645V6.43548H3.19355C3.03387 6.43548 2.90323 6.30484 2.90323 6.14516V5.85484C2.90323 5.69516 3.03387 5.56452 3.19355 5.56452H5.56452V3.19355C5.56452 3.03387 5.69516 2.90323 5.85484 2.90323H6.14516C6.30484 2.90323 6.43548 3.03387 6.43548 3.19355V5.56452H8.80645C8.96613 5.56452 9.09677 5.69516 9.09677 5.85484ZM12 6C12 9.31452 9.31452 12 6 12C2.68548 12 0 9.31452 0 6C0 2.68548 2.68548 0 6 0C9.31452 0 12 2.68548 12 6ZM11.2258 6C11.2258 3.09919 8.87177 0.774194 6 0.774194C3.09919 0.774194 0.774194 3.12823 0.774194 6C0.774194 8.90081 3.12823 11.2258 6 11.2258C8.90081 11.2258 11.2258 8.87177 11.2258 6Z" fill="white"/>
</svg>
