<svg width="18" height="18" viewBox="0 0 18 18" fill="none" xmlns="http://www.w3.org/2000/svg">
<path d="M8.95245 1.5734C8.95739 1.55818 8.96201 1.55174 8.96316 1.55021C8.96446 1.54848 8.96541 1.54765 8.96667 1.54679C8.9701 1.54445 8.98142 1.53885 9 1.53885C9.01857 1.53885 9.02989 1.54445 9.03333 1.54679C9.03458 1.54765 9.03553 1.54848 9.03684 1.55021C9.03799 1.55175 9.04261 1.55819 9.04755 1.5734L10.5768 6.27979C10.7843 6.91843 11.3794 7.35081 12.0509 7.35081H16.9995C17.0155 7.35081 17.023 7.35322 17.0248 7.35384C17.0269 7.35454 17.028 7.35519 17.0292 7.35612C17.0325 7.35866 17.0413 7.3677 17.047 7.38536C17.0528 7.40303 17.0509 7.41552 17.0498 7.41951C17.0494 7.42097 17.0489 7.42213 17.0476 7.42391C17.0465 7.42547 17.0418 7.43186 17.0289 7.44126L13.0254 10.35C12.4821 10.7447 12.2548 11.4443 12.4623 12.0829L13.9915 16.7893C13.9964 16.8045 13.9965 16.8125 13.9965 16.8144C13.9964 16.8165 13.9961 16.8178 13.9956 16.8192C13.9942 16.8231 13.9884 16.8343 13.9733 16.8452C13.9583 16.8561 13.9459 16.8583 13.9417 16.8584C13.9402 16.8584 13.9389 16.8583 13.9369 16.8577C13.935 16.8571 13.9275 16.8546 13.9146 16.8452L9.91107 13.9365C9.36781 13.5418 8.63219 13.5418 8.08893 13.9365L4.08544 16.8452C4.0725 16.8546 4.06497 16.8571 4.06314 16.8577C4.06107 16.8583 4.05981 16.8584 4.05829 16.8584C4.05414 16.8583 4.04169 16.8561 4.02666 16.8452C4.01164 16.8343 4.00577 16.8231 4.00437 16.8192C4.00415 16.8186 4.00397 16.818 4.00384 16.8174C4.00366 16.8166 4.00356 16.8156 4.00354 16.8144C4.00351 16.8125 4.00356 16.8045 4.0085 16.7893L5.5377 12.0829C5.7452 11.4443 5.51788 10.7447 4.97463 10.35L0.971135 7.44126C0.95819 7.43186 0.953492 7.42547 0.952392 7.42391C0.951144 7.42213 0.950648 7.42097 0.950222 7.41951C0.949058 7.41552 0.947232 7.40303 0.952971 7.38536C0.958711 7.3677 0.967534 7.35866 0.970821 7.35612C0.972023 7.35519 0.973107 7.35454 0.97516 7.35384C0.976971 7.35322 0.984524 7.35081 1.00053 7.35081H5.94911C6.62061 7.35081 7.21574 6.91842 7.42325 6.27979L8.95245 1.5734Z" stroke="#464646" stroke-opacity="0.2" stroke-width="1.5"/>
</svg>
